<?xml version="1.0" encoding="utf-8" standalone="no"?>
<!DOCTYPE svg PUBLIC "-//W3C//DTD SVG 1.1//EN"
  "http://www.w3.org/Graphics/SVG/1.1/DTD/svg11.dtd">
<svg xmlns:xlink="http://www.w3.org/1999/xlink" width="460.8pt" height="345.6pt" viewBox="0 0 460.8 345.6" xmlns="http://www.w3.org/2000/svg" version="1.1">
 <metadata>
  <rdf:RDF xmlns:dc="http://purl.org/dc/elements/1.1/" xmlns:cc="http://creativecommons.org/ns#" xmlns:rdf="http://www.w3.org/1999/02/22-rdf-syntax-ns#">
   <cc:Work>
    <dc:type rdf:resource="http://purl.org/dc/dcmitype/StillImage"/>
    <dc:date>2024-03-04T18:43:53.147879</dc:date>
    <dc:format>image/svg+xml</dc:format>
    <dc:creator>
     <cc:Agent>
      <dc:title>Matplotlib v3.7.1, https://matplotlib.org/</dc:title>
     </cc:Agent>
    </dc:creator>
   </cc:Work>
  </rdf:RDF>
 </metadata>
 <defs>
  <style type="text/css">*{stroke-linejoin: round; stroke-linecap: butt}</style>
 </defs>
 <g id="figure_1">
  <g id="patch_1">
   <path d="M 0 345.6 
L 460.8 345.6 
L 460.8 0 
L 0 0 
z
" style="fill: #ffffff"/>
  </g>
  <g id="axes_1">
   <g id="patch_2">
    <path d="M 57.6 307.584 
L 414.72 307.584 
L 414.72 41.472 
L 57.6 41.472 
z
" style="fill: #ffffff"/>
   </g>
   <g id="matplotlib.axis_1">
    <g id="xtick_1">
     <g id="line2d_1">
      <defs>
       <path id="md4b33b9ef2" d="M 0 0 
L 0 3.5 
" style="stroke: #000000; stroke-width: 0.8"/>
      </defs>
      <g>
       <use xlink:href="#md4b33b9ef2" x="64.080528" y="307.584" style="stroke: #000000; stroke-width: 0.8"/>
      </g>
     </g>
     <g id="text_1">
      <!-- $\mathdefault{10^{-2}}$ -->
      <g transform="translate(45.080528 328.243375) scale(0.2 -0.2)">
       <defs>
        <path id="STIXGeneral-Regular-31" d="M 2522 0 
L 755 0 
L 755 96 
Q 1107 115 1235 227 
Q 1363 339 1363 608 
L 1363 3482 
Q 1363 3795 1171 3795 
Q 1082 3795 883 3718 
L 710 3654 
L 710 3744 
L 1856 4326 
L 1914 4307 
L 1914 486 
Q 1914 275 2042 185 
Q 2170 96 2522 96 
L 2522 0 
z
" transform="scale(0.015625)"/>
        <path id="STIXGeneral-Regular-30" d="M 3046 2112 
Q 3046 1683 2963 1302 
Q 2880 922 2717 602 
Q 2554 282 2266 96 
Q 1978 -90 1600 -90 
Q 1210 -90 915 108 
Q 621 307 461 640 
Q 301 973 227 1350 
Q 154 1728 154 2150 
Q 154 2746 301 3222 
Q 448 3699 790 4012 
Q 1133 4326 1626 4326 
Q 2253 4326 2649 3712 
Q 3046 3098 3046 2112 
z
M 2432 2080 
Q 2432 3091 2217 3625 
Q 2003 4160 1587 4160 
Q 1190 4160 979 3622 
Q 768 3085 768 2106 
Q 768 1120 979 598 
Q 1190 77 1600 77 
Q 2003 77 2217 598 
Q 2432 1120 2432 2080 
z
" transform="scale(0.015625)"/>
        <path id="STIXGeneral-Regular-2212" d="M 3974 1408 
L 410 1408 
L 410 1830 
L 3974 1830 
L 3974 1408 
z
" transform="scale(0.015625)"/>
        <path id="STIXGeneral-Regular-32" d="M 3034 877 
L 2688 0 
L 186 0 
L 186 77 
L 1325 1286 
Q 1773 1754 1965 2144 
Q 2157 2534 2157 2950 
Q 2157 3379 1920 3616 
Q 1683 3853 1267 3853 
Q 922 3853 720 3673 
Q 518 3494 326 3021 
L 192 3053 
Q 301 3648 630 3987 
Q 960 4326 1523 4326 
Q 2054 4326 2380 4006 
Q 2707 3686 2707 3200 
Q 2707 2477 1888 1613 
L 832 486 
L 2330 486 
Q 2541 486 2665 569 
Q 2790 653 2944 915 
L 3034 877 
z
" transform="scale(0.015625)"/>
       </defs>
       <use xlink:href="#STIXGeneral-Regular-31" transform="translate(0 0.684375)"/>
       <use xlink:href="#STIXGeneral-Regular-30" transform="translate(49.999985 0.684375)"/>
       <use xlink:href="#STIXGeneral-Regular-2212" transform="translate(101.574969 36.684375) scale(0.7)"/>
       <use xlink:href="#STIXGeneral-Regular-32" transform="translate(149.524959 36.684375) scale(0.7)"/>
      </g>
     </g>
    </g>
    <g id="xtick_2">
     <g id="line2d_2">
      <g>
       <use xlink:href="#md4b33b9ef2" x="402.138629" y="307.584" style="stroke: #000000; stroke-width: 0.8"/>
      </g>
     </g>
     <g id="text_2">
      <!-- $\mathdefault{10^{-1}}$ -->
      <g transform="translate(383.138629 328.243375) scale(0.2 -0.2)">
       <use xlink:href="#STIXGeneral-Regular-31" transform="translate(0 0.684375)"/>
       <use xlink:href="#STIXGeneral-Regular-30" transform="translate(49.999985 0.684375)"/>
       <use xlink:href="#STIXGeneral-Regular-2212" transform="translate(101.574969 36.684375) scale(0.7)"/>
       <use xlink:href="#STIXGeneral-Regular-31" transform="translate(149.524959 36.684375) scale(0.7)"/>
      </g>
     </g>
    </g>
    <g id="xtick_3">
     <g id="line2d_3">
      <defs>
       <path id="m68aa89c74b" d="M 0 0 
L 0 2 
" style="stroke: #000000; stroke-width: 0.6"/>
      </defs>
      <g>
       <use xlink:href="#m68aa89c74b" x="165.846157" y="307.584" style="stroke: #000000; stroke-width: 0.6"/>
      </g>
     </g>
    </g>
    <g id="xtick_4">
     <g id="line2d_4">
      <g>
       <use xlink:href="#m68aa89c74b" x="225.375234" y="307.584" style="stroke: #000000; stroke-width: 0.6"/>
      </g>
     </g>
    </g>
    <g id="xtick_5">
     <g id="line2d_5">
      <g>
       <use xlink:href="#m68aa89c74b" x="267.611786" y="307.584" style="stroke: #000000; stroke-width: 0.6"/>
      </g>
     </g>
    </g>
    <g id="xtick_6">
     <g id="line2d_6">
      <g>
       <use xlink:href="#m68aa89c74b" x="300.373001" y="307.584" style="stroke: #000000; stroke-width: 0.6"/>
      </g>
     </g>
    </g>
    <g id="xtick_7">
     <g id="line2d_7">
      <g>
       <use xlink:href="#m68aa89c74b" x="327.140862" y="307.584" style="stroke: #000000; stroke-width: 0.6"/>
      </g>
     </g>
    </g>
    <g id="xtick_8">
     <g id="line2d_8">
      <g>
       <use xlink:href="#m68aa89c74b" x="349.772767" y="307.584" style="stroke: #000000; stroke-width: 0.6"/>
      </g>
     </g>
    </g>
    <g id="xtick_9">
     <g id="line2d_9">
      <g>
       <use xlink:href="#m68aa89c74b" x="369.377414" y="307.584" style="stroke: #000000; stroke-width: 0.6"/>
      </g>
     </g>
    </g>
    <g id="xtick_10">
     <g id="line2d_10">
      <g>
       <use xlink:href="#m68aa89c74b" x="386.669939" y="307.584" style="stroke: #000000; stroke-width: 0.6"/>
      </g>
     </g>
    </g>
   </g>
   <g id="matplotlib.axis_2">
    <g id="ytick_1">
     <g id="line2d_11">
      <defs>
       <path id="m3179c82300" d="M 0 0 
L -3.5 0 
" style="stroke: #000000; stroke-width: 0.8"/>
      </defs>
      <g>
       <use xlink:href="#m3179c82300" x="57.6" y="266.948688" style="stroke: #000000; stroke-width: 0.8"/>
      </g>
     </g>
     <g id="text_3">
      <!-- $\mathdefault{10^{-1}}$ -->
      <g transform="translate(12.6 273.778376) scale(0.2 -0.2)">
       <use xlink:href="#STIXGeneral-Regular-31" transform="translate(0 0.684375)"/>
       <use xlink:href="#STIXGeneral-Regular-30" transform="translate(49.999985 0.684375)"/>
       <use xlink:href="#STIXGeneral-Regular-2212" transform="translate(101.574969 36.684375) scale(0.7)"/>
       <use xlink:href="#STIXGeneral-Regular-31" transform="translate(149.524959 36.684375) scale(0.7)"/>
      </g>
     </g>
    </g>
    <g id="ytick_2">
     <g id="line2d_12">
      <g>
       <use xlink:href="#m3179c82300" x="57.6" y="174.147863" style="stroke: #000000; stroke-width: 0.8"/>
      </g>
     </g>
     <g id="text_4">
      <!-- $\mathdefault{10^{0}}$ -->
      <g transform="translate(22.2 180.977551) scale(0.2 -0.2)">
       <use xlink:href="#STIXGeneral-Regular-31" transform="translate(0 0.684375)"/>
       <use xlink:href="#STIXGeneral-Regular-30" transform="translate(49.999985 0.684375)"/>
       <use xlink:href="#STIXGeneral-Regular-30" transform="translate(101.574969 36.684375) scale(0.7)"/>
      </g>
     </g>
    </g>
    <g id="ytick_3">
     <g id="line2d_13">
      <g>
       <use xlink:href="#m3179c82300" x="57.6" y="81.347038" style="stroke: #000000; stroke-width: 0.8"/>
      </g>
     </g>
     <g id="text_5">
      <!-- $\mathdefault{10^{1}}$ -->
      <g transform="translate(22.2 88.176725) scale(0.2 -0.2)">
       <use xlink:href="#STIXGeneral-Regular-31" transform="translate(0 0.684375)"/>
       <use xlink:href="#STIXGeneral-Regular-30" transform="translate(49.999985 0.684375)"/>
       <use xlink:href="#STIXGeneral-Regular-31" transform="translate(101.574969 36.684375) scale(0.7)"/>
      </g>
     </g>
    </g>
    <g id="ytick_4">
     <g id="line2d_14">
      <defs>
       <path id="m4e1a4dfcfe" d="M 0 0 
L -2 0 
" style="stroke: #000000; stroke-width: 0.6"/>
      </defs>
      <g>
       <use xlink:href="#m4e1a4dfcfe" x="57.6" y="303.87785" style="stroke: #000000; stroke-width: 0.6"/>
      </g>
     </g>
    </g>
    <g id="ytick_5">
     <g id="line2d_15">
      <g>
       <use xlink:href="#m4e1a4dfcfe" x="57.6" y="294.88452" style="stroke: #000000; stroke-width: 0.6"/>
      </g>
     </g>
    </g>
    <g id="ytick_6">
     <g id="line2d_16">
      <g>
       <use xlink:href="#m4e1a4dfcfe" x="57.6" y="287.536435" style="stroke: #000000; stroke-width: 0.6"/>
      </g>
     </g>
    </g>
    <g id="ytick_7">
     <g id="line2d_17">
      <g>
       <use xlink:href="#m4e1a4dfcfe" x="57.6" y="281.323718" style="stroke: #000000; stroke-width: 0.6"/>
      </g>
     </g>
    </g>
    <g id="ytick_8">
     <g id="line2d_18">
      <g>
       <use xlink:href="#m4e1a4dfcfe" x="57.6" y="275.942018" style="stroke: #000000; stroke-width: 0.6"/>
      </g>
     </g>
    </g>
    <g id="ytick_9">
     <g id="line2d_19">
      <g>
       <use xlink:href="#m4e1a4dfcfe" x="57.6" y="271.195021" style="stroke: #000000; stroke-width: 0.6"/>
      </g>
     </g>
    </g>
    <g id="ytick_10">
     <g id="line2d_20">
      <g>
       <use xlink:href="#m4e1a4dfcfe" x="57.6" y="239.012856" style="stroke: #000000; stroke-width: 0.6"/>
      </g>
     </g>
    </g>
    <g id="ytick_11">
     <g id="line2d_21">
      <g>
       <use xlink:href="#m4e1a4dfcfe" x="57.6" y="222.671442" style="stroke: #000000; stroke-width: 0.6"/>
      </g>
     </g>
    </g>
    <g id="ytick_12">
     <g id="line2d_22">
      <g>
       <use xlink:href="#m4e1a4dfcfe" x="57.6" y="211.077024" style="stroke: #000000; stroke-width: 0.6"/>
      </g>
     </g>
    </g>
    <g id="ytick_13">
     <g id="line2d_23">
      <g>
       <use xlink:href="#m4e1a4dfcfe" x="57.6" y="202.083695" style="stroke: #000000; stroke-width: 0.6"/>
      </g>
     </g>
    </g>
    <g id="ytick_14">
     <g id="line2d_24">
      <g>
       <use xlink:href="#m4e1a4dfcfe" x="57.6" y="194.73561" style="stroke: #000000; stroke-width: 0.6"/>
      </g>
     </g>
    </g>
    <g id="ytick_15">
     <g id="line2d_25">
      <g>
       <use xlink:href="#m4e1a4dfcfe" x="57.6" y="188.522893" style="stroke: #000000; stroke-width: 0.6"/>
      </g>
     </g>
    </g>
    <g id="ytick_16">
     <g id="line2d_26">
      <g>
       <use xlink:href="#m4e1a4dfcfe" x="57.6" y="183.141192" style="stroke: #000000; stroke-width: 0.6"/>
      </g>
     </g>
    </g>
    <g id="ytick_17">
     <g id="line2d_27">
      <g>
       <use xlink:href="#m4e1a4dfcfe" x="57.6" y="178.394196" style="stroke: #000000; stroke-width: 0.6"/>
      </g>
     </g>
    </g>
    <g id="ytick_18">
     <g id="line2d_28">
      <g>
       <use xlink:href="#m4e1a4dfcfe" x="57.6" y="146.212031" style="stroke: #000000; stroke-width: 0.6"/>
      </g>
     </g>
    </g>
    <g id="ytick_19">
     <g id="line2d_29">
      <g>
       <use xlink:href="#m4e1a4dfcfe" x="57.6" y="129.870617" style="stroke: #000000; stroke-width: 0.6"/>
      </g>
     </g>
    </g>
    <g id="ytick_20">
     <g id="line2d_30">
      <g>
       <use xlink:href="#m4e1a4dfcfe" x="57.6" y="118.276199" style="stroke: #000000; stroke-width: 0.6"/>
      </g>
     </g>
    </g>
    <g id="ytick_21">
     <g id="line2d_31">
      <g>
       <use xlink:href="#m4e1a4dfcfe" x="57.6" y="109.28287" style="stroke: #000000; stroke-width: 0.6"/>
      </g>
     </g>
    </g>
    <g id="ytick_22">
     <g id="line2d_32">
      <g>
       <use xlink:href="#m4e1a4dfcfe" x="57.6" y="101.934785" style="stroke: #000000; stroke-width: 0.6"/>
      </g>
     </g>
    </g>
    <g id="ytick_23">
     <g id="line2d_33">
      <g>
       <use xlink:href="#m4e1a4dfcfe" x="57.6" y="95.722068" style="stroke: #000000; stroke-width: 0.6"/>
      </g>
     </g>
    </g>
    <g id="ytick_24">
     <g id="line2d_34">
      <g>
       <use xlink:href="#m4e1a4dfcfe" x="57.6" y="90.340367" style="stroke: #000000; stroke-width: 0.6"/>
      </g>
     </g>
    </g>
    <g id="ytick_25">
     <g id="line2d_35">
      <g>
       <use xlink:href="#m4e1a4dfcfe" x="57.6" y="85.593371" style="stroke: #000000; stroke-width: 0.6"/>
      </g>
     </g>
    </g>
    <g id="ytick_26">
     <g id="line2d_36">
      <g>
       <use xlink:href="#m4e1a4dfcfe" x="57.6" y="53.411206" style="stroke: #000000; stroke-width: 0.6"/>
      </g>
     </g>
    </g>
   </g>
   <g id="line2d_37">
    <path d="M 398.487273 295.488 
L 389.291697 288.635813 
L 353.66669 262.089437 
L 336.582531 249.358983 
L 322.323607 238.733785 
L 311.985123 231.029947 
L 306.529407 226.964558 
L 300.863105 222.742249 
L 294.969306 218.350418 
L 288.828976 213.774882 
L 282.420587 208.999599 
L 275.719661 204.006328 
L 268.698208 198.774213 
L 261.324016 193.279251 
L 253.559762 187.493629 
L 245.361863 181.384872 
L 236.679 174.914739 
L 227.450168 168.037771 
L 217.602072 160.69935 
L 207.045589 152.833068 
L 195.670855 144.357056 
L 183.340283 135.168791 
L 169.878371 125.137496 
L 155.056351 114.0927 
L 138.56818 101.806353 
L 119.991268 87.963557 
L 98.71858 72.111974 
L 73.832727 53.568 
" clip-path="url(#pdf2832bd6a)" style="fill: none; stroke: #1f77b4; stroke-width: 1.5; stroke-linecap: square"/>
   </g>
   <g id="line2d_38">
    <path d="M 398.487273 273.47992 
L 389.291697 273.47992 
L 353.66669 245.544088 
L 336.582531 273.47992 
L 322.323607 245.544088 
L 311.985123 273.47992 
L 306.529407 273.47992 
L 300.863105 217.608256 
L 294.969306 201.266842 
L 288.828976 245.544088 
L 282.420587 201.266842 
L 275.719661 189.672424 
L 268.698208 195.054124 
L 261.324016 189.672424 
L 253.559762 189.672424 
L 245.361863 170.105057 
L 236.679 170.105057 
L 227.450168 152.743262 
L 217.602072 152.743262 
L 207.045589 152.743262 
L 195.670855 135.080324 
L 183.340283 127.949506 
L 169.878371 120.060434 
L 155.056351 116.628329 
L 138.56818 92.124602 
L 119.991268 93.030323 
L 98.71858 73.745785 
L 73.832727 66.492419 
" clip-path="url(#pdf2832bd6a)" style="fill: none; stroke: #000000; stroke-width: 1.5; stroke-linecap: square"/>
    <defs>
     <path id="m8ba0e5259f" d="M -3 3 
L 3 3 
L 3 -3 
L -3 -3 
z
" style="stroke: #000000; stroke-linejoin: miter"/>
    </defs>
    <g clip-path="url(#pdf2832bd6a)">
     <use xlink:href="#m8ba0e5259f" x="398.487273" y="273.47992" style="stroke: #000000; stroke-linejoin: miter"/>
     <use xlink:href="#m8ba0e5259f" x="389.291697" y="273.47992" style="stroke: #000000; stroke-linejoin: miter"/>
     <use xlink:href="#m8ba0e5259f" x="353.66669" y="245.544088" style="stroke: #000000; stroke-linejoin: miter"/>
     <use xlink:href="#m8ba0e5259f" x="336.582531" y="273.47992" style="stroke: #000000; stroke-linejoin: miter"/>
     <use xlink:href="#m8ba0e5259f" x="322.323607" y="245.544088" style="stroke: #000000; stroke-linejoin: miter"/>
     <use xlink:href="#m8ba0e5259f" x="311.985123" y="273.47992" style="stroke: #000000; stroke-linejoin: miter"/>
     <use xlink:href="#m8ba0e5259f" x="306.529407" y="273.47992" style="stroke: #000000; stroke-linejoin: miter"/>
     <use xlink:href="#m8ba0e5259f" x="300.863105" y="217.608256" style="stroke: #000000; stroke-linejoin: miter"/>
     <use xlink:href="#m8ba0e5259f" x="294.969306" y="201.266842" style="stroke: #000000; stroke-linejoin: miter"/>
     <use xlink:href="#m8ba0e5259f" x="288.828976" y="245.544088" style="stroke: #000000; stroke-linejoin: miter"/>
     <use xlink:href="#m8ba0e5259f" x="282.420587" y="201.266842" style="stroke: #000000; stroke-linejoin: miter"/>
     <use xlink:href="#m8ba0e5259f" x="275.719661" y="189.672424" style="stroke: #000000; stroke-linejoin: miter"/>
     <use xlink:href="#m8ba0e5259f" x="268.698208" y="195.054124" style="stroke: #000000; stroke-linejoin: miter"/>
     <use xlink:href="#m8ba0e5259f" x="261.324016" y="189.672424" style="stroke: #000000; stroke-linejoin: miter"/>
     <use xlink:href="#m8ba0e5259f" x="253.559762" y="189.672424" style="stroke: #000000; stroke-linejoin: miter"/>
     <use xlink:href="#m8ba0e5259f" x="245.361863" y="170.105057" style="stroke: #000000; stroke-linejoin: miter"/>
     <use xlink:href="#m8ba0e5259f" x="236.679" y="170.105057" style="stroke: #000000; stroke-linejoin: miter"/>
     <use xlink:href="#m8ba0e5259f" x="227.450168" y="152.743262" style="stroke: #000000; stroke-linejoin: miter"/>
     <use xlink:href="#m8ba0e5259f" x="217.602072" y="152.743262" style="stroke: #000000; stroke-linejoin: miter"/>
     <use xlink:href="#m8ba0e5259f" x="207.045589" y="152.743262" style="stroke: #000000; stroke-linejoin: miter"/>
     <use xlink:href="#m8ba0e5259f" x="195.670855" y="135.080324" style="stroke: #000000; stroke-linejoin: miter"/>
     <use xlink:href="#m8ba0e5259f" x="183.340283" y="127.949506" style="stroke: #000000; stroke-linejoin: miter"/>
     <use xlink:href="#m8ba0e5259f" x="169.878371" y="120.060434" style="stroke: #000000; stroke-linejoin: miter"/>
     <use xlink:href="#m8ba0e5259f" x="155.056351" y="116.628329" style="stroke: #000000; stroke-linejoin: miter"/>
     <use xlink:href="#m8ba0e5259f" x="138.56818" y="92.124602" style="stroke: #000000; stroke-linejoin: miter"/>
     <use xlink:href="#m8ba0e5259f" x="119.991268" y="93.030323" style="stroke: #000000; stroke-linejoin: miter"/>
     <use xlink:href="#m8ba0e5259f" x="98.71858" y="73.745785" style="stroke: #000000; stroke-linejoin: miter"/>
     <use xlink:href="#m8ba0e5259f" x="73.832727" y="66.492419" style="stroke: #000000; stroke-linejoin: miter"/>
    </g>
   </g>
   <g id="patch_3">
    <path d="M 57.6 307.584 
L 57.6 41.472 
" style="fill: none; stroke: #000000; stroke-width: 0.8; stroke-linejoin: miter; stroke-linecap: square"/>
   </g>
   <g id="patch_4">
    <path d="M 414.72 307.584 
L 414.72 41.472 
" style="fill: none; stroke: #000000; stroke-width: 0.8; stroke-linejoin: miter; stroke-linecap: square"/>
   </g>
   <g id="patch_5">
    <path d="M 57.6 307.584 
L 414.72 307.584 
" style="fill: none; stroke: #000000; stroke-width: 0.8; stroke-linejoin: miter; stroke-linecap: square"/>
   </g>
   <g id="patch_6">
    <path d="M 57.6 41.472 
L 414.72 41.472 
" style="fill: none; stroke: #000000; stroke-width: 0.8; stroke-linejoin: miter; stroke-linecap: square"/>
   </g>
   <g id="legend_1">
    <g id="patch_7">
     <path d="M 298.834081 78.407741 
L 403.058 78.407741 
Q 406.39 78.407741 406.39 75.075741 
L 406.39 53.134 
Q 406.39 49.802 403.058 49.802 
L 298.834081 49.802 
Q 295.502081 49.802 295.502081 53.134 
L 295.502081 75.075741 
Q 295.502081 78.407741 298.834081 78.407741 
z
" style="fill: #ffffff; opacity: 0.8; stroke: #cccccc; stroke-linejoin: miter"/>
    </g>
    <g id="line2d_39">
     <path d="M 302.166081 62.297 
L 318.826081 62.297 
L 335.486081 62.297 
" style="fill: none; stroke: #000000; stroke-width: 1.5; stroke-linecap: square"/>
     <g>
      <use xlink:href="#m8ba0e5259f" x="318.826081" y="62.297" style="stroke: #000000; stroke-linejoin: miter"/>
     </g>
    </g>
    <g id="text_6">
     <!-- 120min -->
     <g transform="translate(348.814081 68.128) scale(0.1666 -0.1666)">
      <defs>
       <path id="STIXGeneral-Regular-6d" d="M 4960 0 
L 3565 0 
L 3565 96 
Q 3834 122 3907 208 
Q 3981 294 3981 576 
L 3981 1894 
Q 3981 2278 3869 2444 
Q 3757 2611 3488 2611 
Q 3264 2611 3107 2521 
Q 2950 2432 2803 2221 
L 2803 608 
Q 2803 301 2896 201 
Q 2989 102 3264 96 
L 3264 0 
L 1830 0 
L 1830 96 
Q 2112 115 2189 188 
Q 2266 262 2266 550 
L 2266 1901 
Q 2266 2611 1850 2611 
Q 1670 2611 1468 2531 
Q 1267 2451 1171 2336 
Q 1088 2240 1088 2227 
L 1088 448 
Q 1088 243 1177 176 
Q 1267 109 1523 96 
L 1523 0 
L 102 0 
L 102 96 
Q 371 102 460 195 
Q 550 288 550 563 
L 550 2150 
Q 550 2387 499 2480 
Q 448 2573 326 2573 
Q 230 2573 122 2547 
L 122 2656 
Q 557 2778 1011 2944 
L 1062 2925 
L 1062 2451 
L 1075 2451 
Q 1363 2752 1584 2848 
Q 1805 2944 2054 2944 
Q 2560 2944 2733 2406 
Q 3232 2944 3776 2944 
Q 4518 2944 4518 1792 
L 4518 493 
Q 4518 282 4582 202 
Q 4646 122 4794 109 
L 4960 96 
L 4960 0 
z
" transform="scale(0.015625)"/>
       <path id="STIXGeneral-Regular-69" d="M 1152 4045 
Q 1152 3904 1056 3811 
Q 960 3718 819 3718 
Q 685 3718 592 3811 
Q 499 3904 499 4045 
Q 499 4179 595 4275 
Q 691 4371 826 4371 
Q 966 4371 1059 4275 
Q 1152 4179 1152 4045 
z
M 1619 0 
L 102 0 
L 102 96 
Q 435 115 521 211 
Q 608 307 608 666 
L 608 2118 
Q 608 2342 563 2432 
Q 518 2522 397 2522 
Q 243 2522 128 2490 
L 128 2592 
L 1120 2944 
L 1146 2918 
L 1146 672 
Q 1146 314 1226 218 
Q 1306 122 1619 96 
L 1619 0 
z
" transform="scale(0.015625)"/>
       <path id="STIXGeneral-Regular-6e" d="M 3104 0 
L 1773 0 
L 1779 96 
Q 2016 115 2096 233 
Q 2176 352 2176 672 
L 2176 1946 
Q 2176 2592 1709 2592 
Q 1549 2592 1408 2515 
Q 1267 2438 1050 2227 
L 1050 461 
Q 1050 269 1136 192 
Q 1222 115 1466 96 
L 1466 0 
L 115 0 
L 115 96 
Q 358 115 435 214 
Q 512 314 512 602 
L 512 2157 
Q 512 2394 467 2483 
Q 422 2573 288 2573 
Q 160 2573 102 2547 
L 102 2656 
Q 550 2784 979 2944 
L 1030 2925 
L 1030 2426 
L 1037 2426 
Q 1491 2944 1958 2944 
Q 2323 2944 2518 2688 
Q 2714 2432 2714 1958 
L 2714 544 
Q 2714 288 2790 205 
Q 2867 122 3104 96 
L 3104 0 
z
" transform="scale(0.015625)"/>
      </defs>
      <use xlink:href="#STIXGeneral-Regular-31"/>
      <use xlink:href="#STIXGeneral-Regular-32" x="49.999985"/>
      <use xlink:href="#STIXGeneral-Regular-30" x="99.999969"/>
      <use xlink:href="#STIXGeneral-Regular-6d" x="149.999954"/>
      <use xlink:href="#STIXGeneral-Regular-69" x="227.799942"/>
      <use xlink:href="#STIXGeneral-Regular-6e" x="255.59993"/>
     </g>
    </g>
   </g>
  </g>
 </g>
 <defs>
  <clipPath id="pdf2832bd6a">
   <rect x="57.6" y="41.472" width="357.12" height="266.112"/>
  </clipPath>
 </defs>
</svg>
