<?xml version="1.0" encoding="utf-8" standalone="no"?>
<!DOCTYPE svg PUBLIC "-//W3C//DTD SVG 1.1//EN"
  "http://www.w3.org/Graphics/SVG/1.1/DTD/svg11.dtd">
<svg xmlns:xlink="http://www.w3.org/1999/xlink" width="460.8pt" height="345.6pt" viewBox="0 0 460.8 345.6" xmlns="http://www.w3.org/2000/svg" version="1.1">
 <metadata>
  <rdf:RDF xmlns:dc="http://purl.org/dc/elements/1.1/" xmlns:cc="http://creativecommons.org/ns#" xmlns:rdf="http://www.w3.org/1999/02/22-rdf-syntax-ns#">
   <cc:Work>
    <dc:type rdf:resource="http://purl.org/dc/dcmitype/StillImage"/>
    <dc:date>2024-03-04T18:00:55.870990</dc:date>
    <dc:format>image/svg+xml</dc:format>
    <dc:creator>
     <cc:Agent>
      <dc:title>Matplotlib v3.7.1, https://matplotlib.org/</dc:title>
     </cc:Agent>
    </dc:creator>
   </cc:Work>
  </rdf:RDF>
 </metadata>
 <defs>
  <style type="text/css">*{stroke-linejoin: round; stroke-linecap: butt}</style>
 </defs>
 <g id="figure_1">
  <g id="patch_1">
   <path d="M 0 345.6 
L 460.8 345.6 
L 460.8 0 
L 0 0 
z
" style="fill: #ffffff"/>
  </g>
  <g id="axes_1">
   <g id="patch_2">
    <path d="M 57.6 307.584 
L 414.72 307.584 
L 414.72 41.472 
L 57.6 41.472 
z
" style="fill: #ffffff"/>
   </g>
   <g id="matplotlib.axis_1">
    <g id="xtick_1">
     <g id="line2d_1">
      <defs>
       <path id="m4ff0906155" d="M 0 0 
L 0 3.5 
" style="stroke: #000000; stroke-width: 0.8"/>
      </defs>
      <g>
       <use xlink:href="#m4ff0906155" x="63.623083" y="307.584" style="stroke: #000000; stroke-width: 0.8"/>
      </g>
     </g>
     <g id="text_1">
      <!-- $\mathdefault{10^{-2}}$ -->
      <g transform="translate(44.623083 328.243375) scale(0.2 -0.2)">
       <defs>
        <path id="STIXGeneral-Regular-31" d="M 2522 0 
L 755 0 
L 755 96 
Q 1107 115 1235 227 
Q 1363 339 1363 608 
L 1363 3482 
Q 1363 3795 1171 3795 
Q 1082 3795 883 3718 
L 710 3654 
L 710 3744 
L 1856 4326 
L 1914 4307 
L 1914 486 
Q 1914 275 2042 185 
Q 2170 96 2522 96 
L 2522 0 
z
" transform="scale(0.015625)"/>
        <path id="STIXGeneral-Regular-30" d="M 3046 2112 
Q 3046 1683 2963 1302 
Q 2880 922 2717 602 
Q 2554 282 2266 96 
Q 1978 -90 1600 -90 
Q 1210 -90 915 108 
Q 621 307 461 640 
Q 301 973 227 1350 
Q 154 1728 154 2150 
Q 154 2746 301 3222 
Q 448 3699 790 4012 
Q 1133 4326 1626 4326 
Q 2253 4326 2649 3712 
Q 3046 3098 3046 2112 
z
M 2432 2080 
Q 2432 3091 2217 3625 
Q 2003 4160 1587 4160 
Q 1190 4160 979 3622 
Q 768 3085 768 2106 
Q 768 1120 979 598 
Q 1190 77 1600 77 
Q 2003 77 2217 598 
Q 2432 1120 2432 2080 
z
" transform="scale(0.015625)"/>
        <path id="STIXGeneral-Regular-2212" d="M 3974 1408 
L 410 1408 
L 410 1830 
L 3974 1830 
L 3974 1408 
z
" transform="scale(0.015625)"/>
        <path id="STIXGeneral-Regular-32" d="M 3034 877 
L 2688 0 
L 186 0 
L 186 77 
L 1325 1286 
Q 1773 1754 1965 2144 
Q 2157 2534 2157 2950 
Q 2157 3379 1920 3616 
Q 1683 3853 1267 3853 
Q 922 3853 720 3673 
Q 518 3494 326 3021 
L 192 3053 
Q 301 3648 630 3987 
Q 960 4326 1523 4326 
Q 2054 4326 2380 4006 
Q 2707 3686 2707 3200 
Q 2707 2477 1888 1613 
L 832 486 
L 2330 486 
Q 2541 486 2665 569 
Q 2790 653 2944 915 
L 3034 877 
z
" transform="scale(0.015625)"/>
       </defs>
       <use xlink:href="#STIXGeneral-Regular-31" transform="translate(0 0.684375)"/>
       <use xlink:href="#STIXGeneral-Regular-30" transform="translate(49.999985 0.684375)"/>
       <use xlink:href="#STIXGeneral-Regular-2212" transform="translate(101.574969 36.684375) scale(0.7)"/>
       <use xlink:href="#STIXGeneral-Regular-32" transform="translate(149.524959 36.684375) scale(0.7)"/>
      </g>
     </g>
    </g>
    <g id="xtick_2">
     <g id="line2d_2">
      <g>
       <use xlink:href="#m4ff0906155" x="401.100846" y="307.584" style="stroke: #000000; stroke-width: 0.8"/>
      </g>
     </g>
     <g id="text_2">
      <!-- $\mathdefault{10^{-1}}$ -->
      <g transform="translate(382.100846 328.243375) scale(0.2 -0.2)">
       <use xlink:href="#STIXGeneral-Regular-31" transform="translate(0 0.684375)"/>
       <use xlink:href="#STIXGeneral-Regular-30" transform="translate(49.999985 0.684375)"/>
       <use xlink:href="#STIXGeneral-Regular-2212" transform="translate(101.574969 36.684375) scale(0.7)"/>
       <use xlink:href="#STIXGeneral-Regular-31" transform="translate(149.524959 36.684375) scale(0.7)"/>
      </g>
     </g>
    </g>
    <g id="xtick_3">
     <g id="line2d_3">
      <defs>
       <path id="m981e370a65" d="M 0 0 
L 0 2 
" style="stroke: #000000; stroke-width: 0.6"/>
      </defs>
      <g>
       <use xlink:href="#m981e370a65" x="165.214012" y="307.584" style="stroke: #000000; stroke-width: 0.6"/>
      </g>
     </g>
    </g>
    <g id="xtick_4">
     <g id="line2d_4">
      <g>
       <use xlink:href="#m981e370a65" x="224.640896" y="307.584" style="stroke: #000000; stroke-width: 0.6"/>
      </g>
     </g>
    </g>
    <g id="xtick_5">
     <g id="line2d_5">
      <g>
       <use xlink:href="#m981e370a65" x="266.804942" y="307.584" style="stroke: #000000; stroke-width: 0.6"/>
      </g>
     </g>
    </g>
    <g id="xtick_6">
     <g id="line2d_6">
      <g>
       <use xlink:href="#m981e370a65" x="299.509916" y="307.584" style="stroke: #000000; stroke-width: 0.6"/>
      </g>
     </g>
    </g>
    <g id="xtick_7">
     <g id="line2d_7">
      <g>
       <use xlink:href="#m981e370a65" x="326.231826" y="307.584" style="stroke: #000000; stroke-width: 0.6"/>
      </g>
     </g>
    </g>
    <g id="xtick_8">
     <g id="line2d_8">
      <g>
       <use xlink:href="#m981e370a65" x="348.824879" y="307.584" style="stroke: #000000; stroke-width: 0.6"/>
      </g>
     </g>
    </g>
    <g id="xtick_9">
     <g id="line2d_9">
      <g>
       <use xlink:href="#m981e370a65" x="368.395871" y="307.584" style="stroke: #000000; stroke-width: 0.6"/>
      </g>
     </g>
    </g>
    <g id="xtick_10">
     <g id="line2d_10">
      <g>
       <use xlink:href="#m981e370a65" x="385.65871" y="307.584" style="stroke: #000000; stroke-width: 0.6"/>
      </g>
     </g>
    </g>
   </g>
   <g id="matplotlib.axis_2">
    <g id="ytick_1">
     <g id="line2d_11">
      <defs>
       <path id="m1089eb264e" d="M 0 0 
L -3.5 0 
" style="stroke: #000000; stroke-width: 0.8"/>
      </defs>
      <g>
       <use xlink:href="#m1089eb264e" x="57.6" y="292.086771" style="stroke: #000000; stroke-width: 0.8"/>
      </g>
     </g>
     <g id="text_3">
      <!-- $\mathdefault{10^{-1}}$ -->
      <g transform="translate(12.6 298.916458) scale(0.2 -0.2)">
       <use xlink:href="#STIXGeneral-Regular-31" transform="translate(0 0.684375)"/>
       <use xlink:href="#STIXGeneral-Regular-30" transform="translate(49.999985 0.684375)"/>
       <use xlink:href="#STIXGeneral-Regular-2212" transform="translate(101.574969 36.684375) scale(0.7)"/>
       <use xlink:href="#STIXGeneral-Regular-31" transform="translate(149.524959 36.684375) scale(0.7)"/>
      </g>
     </g>
    </g>
    <g id="ytick_2">
     <g id="line2d_12">
      <g>
       <use xlink:href="#m1089eb264e" x="57.6" y="198.401221" style="stroke: #000000; stroke-width: 0.8"/>
      </g>
     </g>
     <g id="text_4">
      <!-- $\mathdefault{10^{0}}$ -->
      <g transform="translate(22.2 205.230908) scale(0.2 -0.2)">
       <use xlink:href="#STIXGeneral-Regular-31" transform="translate(0 0.684375)"/>
       <use xlink:href="#STIXGeneral-Regular-30" transform="translate(49.999985 0.684375)"/>
       <use xlink:href="#STIXGeneral-Regular-30" transform="translate(101.574969 36.684375) scale(0.7)"/>
      </g>
     </g>
    </g>
    <g id="ytick_3">
     <g id="line2d_13">
      <g>
       <use xlink:href="#m1089eb264e" x="57.6" y="104.715671" style="stroke: #000000; stroke-width: 0.8"/>
      </g>
     </g>
     <g id="text_5">
      <!-- $\mathdefault{10^{1}}$ -->
      <g transform="translate(22.2 111.545358) scale(0.2 -0.2)">
       <use xlink:href="#STIXGeneral-Regular-31" transform="translate(0 0.684375)"/>
       <use xlink:href="#STIXGeneral-Regular-30" transform="translate(49.999985 0.684375)"/>
       <use xlink:href="#STIXGeneral-Regular-31" transform="translate(101.574969 36.684375) scale(0.7)"/>
      </g>
     </g>
    </g>
    <g id="ytick_4">
     <g id="line2d_14">
      <defs>
       <path id="mc8d1039996" d="M 0 0 
L -2 0 
" style="stroke: #000000; stroke-width: 0.6"/>
      </defs>
      <g>
       <use xlink:href="#mc8d1039996" x="57.6" y="306.598846" style="stroke: #000000; stroke-width: 0.6"/>
      </g>
     </g>
    </g>
    <g id="ytick_5">
     <g id="line2d_15">
      <g>
       <use xlink:href="#mc8d1039996" x="57.6" y="301.165839" style="stroke: #000000; stroke-width: 0.6"/>
      </g>
     </g>
    </g>
    <g id="ytick_6">
     <g id="line2d_16">
      <g>
       <use xlink:href="#mc8d1039996" x="57.6" y="296.373586" style="stroke: #000000; stroke-width: 0.6"/>
      </g>
     </g>
    </g>
    <g id="ytick_7">
     <g id="line2d_17">
      <g>
       <use xlink:href="#mc8d1039996" x="57.6" y="263.88461" style="stroke: #000000; stroke-width: 0.6"/>
      </g>
     </g>
    </g>
    <g id="ytick_8">
     <g id="line2d_18">
      <g>
       <use xlink:href="#mc8d1039996" x="57.6" y="247.387403" style="stroke: #000000; stroke-width: 0.6"/>
      </g>
     </g>
    </g>
    <g id="ytick_9">
     <g id="line2d_19">
      <g>
       <use xlink:href="#mc8d1039996" x="57.6" y="235.682449" style="stroke: #000000; stroke-width: 0.6"/>
      </g>
     </g>
    </g>
    <g id="ytick_10">
     <g id="line2d_20">
      <g>
       <use xlink:href="#mc8d1039996" x="57.6" y="226.603381" style="stroke: #000000; stroke-width: 0.6"/>
      </g>
     </g>
    </g>
    <g id="ytick_11">
     <g id="line2d_21">
      <g>
       <use xlink:href="#mc8d1039996" x="57.6" y="219.185243" style="stroke: #000000; stroke-width: 0.6"/>
      </g>
     </g>
    </g>
    <g id="ytick_12">
     <g id="line2d_22">
      <g>
       <use xlink:href="#mc8d1039996" x="57.6" y="212.913296" style="stroke: #000000; stroke-width: 0.6"/>
      </g>
     </g>
    </g>
    <g id="ytick_13">
     <g id="line2d_23">
      <g>
       <use xlink:href="#mc8d1039996" x="57.6" y="207.480288" style="stroke: #000000; stroke-width: 0.6"/>
      </g>
     </g>
    </g>
    <g id="ytick_14">
     <g id="line2d_24">
      <g>
       <use xlink:href="#mc8d1039996" x="57.6" y="202.688036" style="stroke: #000000; stroke-width: 0.6"/>
      </g>
     </g>
    </g>
    <g id="ytick_15">
     <g id="line2d_25">
      <g>
       <use xlink:href="#mc8d1039996" x="57.6" y="170.19906" style="stroke: #000000; stroke-width: 0.6"/>
      </g>
     </g>
    </g>
    <g id="ytick_16">
     <g id="line2d_26">
      <g>
       <use xlink:href="#mc8d1039996" x="57.6" y="153.701853" style="stroke: #000000; stroke-width: 0.6"/>
      </g>
     </g>
    </g>
    <g id="ytick_17">
     <g id="line2d_27">
      <g>
       <use xlink:href="#mc8d1039996" x="57.6" y="141.996899" style="stroke: #000000; stroke-width: 0.6"/>
      </g>
     </g>
    </g>
    <g id="ytick_18">
     <g id="line2d_28">
      <g>
       <use xlink:href="#mc8d1039996" x="57.6" y="132.917831" style="stroke: #000000; stroke-width: 0.6"/>
      </g>
     </g>
    </g>
    <g id="ytick_19">
     <g id="line2d_29">
      <g>
       <use xlink:href="#mc8d1039996" x="57.6" y="125.499693" style="stroke: #000000; stroke-width: 0.6"/>
      </g>
     </g>
    </g>
    <g id="ytick_20">
     <g id="line2d_30">
      <g>
       <use xlink:href="#mc8d1039996" x="57.6" y="119.227746" style="stroke: #000000; stroke-width: 0.6"/>
      </g>
     </g>
    </g>
    <g id="ytick_21">
     <g id="line2d_31">
      <g>
       <use xlink:href="#mc8d1039996" x="57.6" y="113.794738" style="stroke: #000000; stroke-width: 0.6"/>
      </g>
     </g>
    </g>
    <g id="ytick_22">
     <g id="line2d_32">
      <g>
       <use xlink:href="#mc8d1039996" x="57.6" y="109.002486" style="stroke: #000000; stroke-width: 0.6"/>
      </g>
     </g>
    </g>
    <g id="ytick_23">
     <g id="line2d_33">
      <g>
       <use xlink:href="#mc8d1039996" x="57.6" y="76.51351" style="stroke: #000000; stroke-width: 0.6"/>
      </g>
     </g>
    </g>
    <g id="ytick_24">
     <g id="line2d_34">
      <g>
       <use xlink:href="#mc8d1039996" x="57.6" y="60.016303" style="stroke: #000000; stroke-width: 0.6"/>
      </g>
     </g>
    </g>
    <g id="ytick_25">
     <g id="line2d_35">
      <g>
       <use xlink:href="#mc8d1039996" x="57.6" y="48.311349" style="stroke: #000000; stroke-width: 0.6"/>
      </g>
     </g>
    </g>
   </g>
   <g id="line2d_36">
    <path d="M 73.832727 53.568 
L 98.263063 71.772541 
L 119.19706 87.371744 
L 137.511318 101.018821 
L 153.789192 113.148463 
L 168.438563 124.064606 
L 181.755842 133.988128 
L 193.963225 143.084597 
L 205.231567 151.481329 
L 215.695074 159.27833 
L 225.461092 166.555588 
L 234.616827 173.378087 
L 243.234086 179.799335 
L 251.372705 185.863919 
L 259.08307 191.609384 
L 266.408006 197.067643 
L 273.384219 202.266047 
L 280.04341 207.228218 
L 286.413143 211.974697 
L 292.517538 216.523456 
L 298.37782 220.890311 
L 304.012764 225.089253 
L 309.439059 229.132718 
L 314.671607 233.03181 
L 319.723768 236.796485 
L 324.607566 240.435703 
L 329.333861 243.957555 
L 338.352419 250.677835 
L 342.661787 253.889009 
L 346.848059 257.008457 
L 350.918073 260.041274 
L 354.878113 262.992142 
L 358.733965 265.865374 
L 383.210487 284.104331 
L 389.513532 288.801116 
L 398.487273 295.488 
" clip-path="url(#p0ae4fb7ec3)" style="fill: none; stroke: #1f77b4; stroke-width: 1.5; stroke-linecap: square"/>
   </g>
   <g id="line2d_37">
    <path d="M 73.832727 82.436484 
L 98.263063 84.097413 
L 119.19706 91.010115 
L 137.511318 99.342609 
L 153.789192 105.307482 
L 168.438563 108.26785 
L 181.755842 131.422666 
L 193.963225 127.54477 
L 205.231567 132.802023 
L 215.695074 126.330139 
L 225.461092 140.501734 
L 234.616827 156.998941 
L 243.234086 162.431948 
L 251.372705 185.201101 
L 259.08307 180.408849 
L 266.408006 225.108216 
L 273.384219 225.108216 
L 280.04341 213.403262 
L 286.413143 225.108216 
L 292.517538 213.403262 
L 298.37782 225.108216 
L 304.012764 213.403262 
L 309.439059 241.605423 
L 314.671607 269.807584 
L 319.723768 241.605423 
L 324.607566 269.807584 
L 329.333861 269.807584 
L 338.352419 269.807584 
L 342.661787 241.605423 
L 346.848059 269.807584 
L 350.918073 269.807584 
L 354.878113 269.807584 
L 358.733965 241.605423 
L 383.210487 269.807584 
L 389.513532 269.807584 
L 398.487273 269.807584 
" clip-path="url(#p0ae4fb7ec3)" style="fill: none; stroke: #bfbf00; stroke-width: 1.5; stroke-linecap: square"/>
    <defs>
     <path id="m0572e6fe71" d="M -3 3 
L 3 3 
L 3 -3 
L -3 -3 
z
" style="stroke: #bfbf00; stroke-linejoin: miter"/>
    </defs>
    <g clip-path="url(#p0ae4fb7ec3)">
     <use xlink:href="#m0572e6fe71" x="73.832727" y="82.436484" style="fill: #bfbf00; stroke: #bfbf00; stroke-linejoin: miter"/>
     <use xlink:href="#m0572e6fe71" x="98.263063" y="84.097413" style="fill: #bfbf00; stroke: #bfbf00; stroke-linejoin: miter"/>
     <use xlink:href="#m0572e6fe71" x="119.19706" y="91.010115" style="fill: #bfbf00; stroke: #bfbf00; stroke-linejoin: miter"/>
     <use xlink:href="#m0572e6fe71" x="137.511318" y="99.342609" style="fill: #bfbf00; stroke: #bfbf00; stroke-linejoin: miter"/>
     <use xlink:href="#m0572e6fe71" x="153.789192" y="105.307482" style="fill: #bfbf00; stroke: #bfbf00; stroke-linejoin: miter"/>
     <use xlink:href="#m0572e6fe71" x="168.438563" y="108.26785" style="fill: #bfbf00; stroke: #bfbf00; stroke-linejoin: miter"/>
     <use xlink:href="#m0572e6fe71" x="181.755842" y="131.422666" style="fill: #bfbf00; stroke: #bfbf00; stroke-linejoin: miter"/>
     <use xlink:href="#m0572e6fe71" x="193.963225" y="127.54477" style="fill: #bfbf00; stroke: #bfbf00; stroke-linejoin: miter"/>
     <use xlink:href="#m0572e6fe71" x="205.231567" y="132.802023" style="fill: #bfbf00; stroke: #bfbf00; stroke-linejoin: miter"/>
     <use xlink:href="#m0572e6fe71" x="215.695074" y="126.330139" style="fill: #bfbf00; stroke: #bfbf00; stroke-linejoin: miter"/>
     <use xlink:href="#m0572e6fe71" x="225.461092" y="140.501734" style="fill: #bfbf00; stroke: #bfbf00; stroke-linejoin: miter"/>
     <use xlink:href="#m0572e6fe71" x="234.616827" y="156.998941" style="fill: #bfbf00; stroke: #bfbf00; stroke-linejoin: miter"/>
     <use xlink:href="#m0572e6fe71" x="243.234086" y="162.431948" style="fill: #bfbf00; stroke: #bfbf00; stroke-linejoin: miter"/>
     <use xlink:href="#m0572e6fe71" x="251.372705" y="185.201101" style="fill: #bfbf00; stroke: #bfbf00; stroke-linejoin: miter"/>
     <use xlink:href="#m0572e6fe71" x="259.08307" y="180.408849" style="fill: #bfbf00; stroke: #bfbf00; stroke-linejoin: miter"/>
     <use xlink:href="#m0572e6fe71" x="266.408006" y="225.108216" style="fill: #bfbf00; stroke: #bfbf00; stroke-linejoin: miter"/>
     <use xlink:href="#m0572e6fe71" x="273.384219" y="225.108216" style="fill: #bfbf00; stroke: #bfbf00; stroke-linejoin: miter"/>
     <use xlink:href="#m0572e6fe71" x="280.04341" y="213.403262" style="fill: #bfbf00; stroke: #bfbf00; stroke-linejoin: miter"/>
     <use xlink:href="#m0572e6fe71" x="286.413143" y="225.108216" style="fill: #bfbf00; stroke: #bfbf00; stroke-linejoin: miter"/>
     <use xlink:href="#m0572e6fe71" x="292.517538" y="213.403262" style="fill: #bfbf00; stroke: #bfbf00; stroke-linejoin: miter"/>
     <use xlink:href="#m0572e6fe71" x="298.37782" y="225.108216" style="fill: #bfbf00; stroke: #bfbf00; stroke-linejoin: miter"/>
     <use xlink:href="#m0572e6fe71" x="304.012764" y="213.403262" style="fill: #bfbf00; stroke: #bfbf00; stroke-linejoin: miter"/>
     <use xlink:href="#m0572e6fe71" x="309.439059" y="241.605423" style="fill: #bfbf00; stroke: #bfbf00; stroke-linejoin: miter"/>
     <use xlink:href="#m0572e6fe71" x="314.671607" y="269.807584" style="fill: #bfbf00; stroke: #bfbf00; stroke-linejoin: miter"/>
     <use xlink:href="#m0572e6fe71" x="319.723768" y="241.605423" style="fill: #bfbf00; stroke: #bfbf00; stroke-linejoin: miter"/>
     <use xlink:href="#m0572e6fe71" x="324.607566" y="269.807584" style="fill: #bfbf00; stroke: #bfbf00; stroke-linejoin: miter"/>
     <use xlink:href="#m0572e6fe71" x="329.333861" y="269.807584" style="fill: #bfbf00; stroke: #bfbf00; stroke-linejoin: miter"/>
     <use xlink:href="#m0572e6fe71" x="338.352419" y="269.807584" style="fill: #bfbf00; stroke: #bfbf00; stroke-linejoin: miter"/>
     <use xlink:href="#m0572e6fe71" x="342.661787" y="241.605423" style="fill: #bfbf00; stroke: #bfbf00; stroke-linejoin: miter"/>
     <use xlink:href="#m0572e6fe71" x="346.848059" y="269.807584" style="fill: #bfbf00; stroke: #bfbf00; stroke-linejoin: miter"/>
     <use xlink:href="#m0572e6fe71" x="350.918073" y="269.807584" style="fill: #bfbf00; stroke: #bfbf00; stroke-linejoin: miter"/>
     <use xlink:href="#m0572e6fe71" x="354.878113" y="269.807584" style="fill: #bfbf00; stroke: #bfbf00; stroke-linejoin: miter"/>
     <use xlink:href="#m0572e6fe71" x="358.733965" y="241.605423" style="fill: #bfbf00; stroke: #bfbf00; stroke-linejoin: miter"/>
     <use xlink:href="#m0572e6fe71" x="383.210487" y="269.807584" style="fill: #bfbf00; stroke: #bfbf00; stroke-linejoin: miter"/>
     <use xlink:href="#m0572e6fe71" x="389.513532" y="269.807584" style="fill: #bfbf00; stroke: #bfbf00; stroke-linejoin: miter"/>
     <use xlink:href="#m0572e6fe71" x="398.487273" y="269.807584" style="fill: #bfbf00; stroke: #bfbf00; stroke-linejoin: miter"/>
    </g>
   </g>
   <g id="patch_3">
    <path d="M 57.6 307.584 
L 57.6 41.472 
" style="fill: none; stroke: #000000; stroke-width: 0.8; stroke-linejoin: miter; stroke-linecap: square"/>
   </g>
   <g id="patch_4">
    <path d="M 414.72 307.584 
L 414.72 41.472 
" style="fill: none; stroke: #000000; stroke-width: 0.8; stroke-linejoin: miter; stroke-linecap: square"/>
   </g>
   <g id="patch_5">
    <path d="M 57.6 307.584 
L 414.72 307.584 
" style="fill: none; stroke: #000000; stroke-width: 0.8; stroke-linejoin: miter; stroke-linecap: square"/>
   </g>
   <g id="patch_6">
    <path d="M 57.6 41.472 
L 414.72 41.472 
" style="fill: none; stroke: #000000; stroke-width: 0.8; stroke-linejoin: miter; stroke-linecap: square"/>
   </g>
   <g id="legend_1">
    <g id="patch_7">
     <path d="M 298.834081 78.407741 
L 403.058 78.407741 
Q 406.39 78.407741 406.39 75.075741 
L 406.39 53.134 
Q 406.39 49.802 403.058 49.802 
L 298.834081 49.802 
Q 295.502081 49.802 295.502081 53.134 
L 295.502081 75.075741 
Q 295.502081 78.407741 298.834081 78.407741 
z
" style="fill: #ffffff; opacity: 0.8; stroke: #cccccc; stroke-linejoin: miter"/>
    </g>
    <g id="line2d_38">
     <path d="M 302.166081 62.297 
L 318.826081 62.297 
L 335.486081 62.297 
" style="fill: none; stroke: #bfbf00; stroke-width: 1.5; stroke-linecap: square"/>
     <g>
      <use xlink:href="#m0572e6fe71" x="318.826081" y="62.297" style="fill: #bfbf00; stroke: #bfbf00; stroke-linejoin: miter"/>
     </g>
    </g>
    <g id="text_6">
     <!-- 240min -->
     <g transform="translate(348.814081 68.128) scale(0.1666 -0.1666)">
      <defs>
       <path id="STIXGeneral-Regular-34" d="M 3027 1069 
L 2368 1069 
L 2368 0 
L 1869 0 
L 1869 1069 
L 77 1069 
L 77 1478 
L 2086 4326 
L 2368 4326 
L 2368 1478 
L 3027 1478 
L 3027 1069 
z
M 1869 1478 
L 1869 3674 
L 333 1478 
L 1869 1478 
z
" transform="scale(0.015625)"/>
       <path id="STIXGeneral-Regular-6d" d="M 4960 0 
L 3565 0 
L 3565 96 
Q 3834 122 3907 208 
Q 3981 294 3981 576 
L 3981 1894 
Q 3981 2278 3869 2444 
Q 3757 2611 3488 2611 
Q 3264 2611 3107 2521 
Q 2950 2432 2803 2221 
L 2803 608 
Q 2803 301 2896 201 
Q 2989 102 3264 96 
L 3264 0 
L 1830 0 
L 1830 96 
Q 2112 115 2189 188 
Q 2266 262 2266 550 
L 2266 1901 
Q 2266 2611 1850 2611 
Q 1670 2611 1468 2531 
Q 1267 2451 1171 2336 
Q 1088 2240 1088 2227 
L 1088 448 
Q 1088 243 1177 176 
Q 1267 109 1523 96 
L 1523 0 
L 102 0 
L 102 96 
Q 371 102 460 195 
Q 550 288 550 563 
L 550 2150 
Q 550 2387 499 2480 
Q 448 2573 326 2573 
Q 230 2573 122 2547 
L 122 2656 
Q 557 2778 1011 2944 
L 1062 2925 
L 1062 2451 
L 1075 2451 
Q 1363 2752 1584 2848 
Q 1805 2944 2054 2944 
Q 2560 2944 2733 2406 
Q 3232 2944 3776 2944 
Q 4518 2944 4518 1792 
L 4518 493 
Q 4518 282 4582 202 
Q 4646 122 4794 109 
L 4960 96 
L 4960 0 
z
" transform="scale(0.015625)"/>
       <path id="STIXGeneral-Regular-69" d="M 1152 4045 
Q 1152 3904 1056 3811 
Q 960 3718 819 3718 
Q 685 3718 592 3811 
Q 499 3904 499 4045 
Q 499 4179 595 4275 
Q 691 4371 826 4371 
Q 966 4371 1059 4275 
Q 1152 4179 1152 4045 
z
M 1619 0 
L 102 0 
L 102 96 
Q 435 115 521 211 
Q 608 307 608 666 
L 608 2118 
Q 608 2342 563 2432 
Q 518 2522 397 2522 
Q 243 2522 128 2490 
L 128 2592 
L 1120 2944 
L 1146 2918 
L 1146 672 
Q 1146 314 1226 218 
Q 1306 122 1619 96 
L 1619 0 
z
" transform="scale(0.015625)"/>
       <path id="STIXGeneral-Regular-6e" d="M 3104 0 
L 1773 0 
L 1779 96 
Q 2016 115 2096 233 
Q 2176 352 2176 672 
L 2176 1946 
Q 2176 2592 1709 2592 
Q 1549 2592 1408 2515 
Q 1267 2438 1050 2227 
L 1050 461 
Q 1050 269 1136 192 
Q 1222 115 1466 96 
L 1466 0 
L 115 0 
L 115 96 
Q 358 115 435 214 
Q 512 314 512 602 
L 512 2157 
Q 512 2394 467 2483 
Q 422 2573 288 2573 
Q 160 2573 102 2547 
L 102 2656 
Q 550 2784 979 2944 
L 1030 2925 
L 1030 2426 
L 1037 2426 
Q 1491 2944 1958 2944 
Q 2323 2944 2518 2688 
Q 2714 2432 2714 1958 
L 2714 544 
Q 2714 288 2790 205 
Q 2867 122 3104 96 
L 3104 0 
z
" transform="scale(0.015625)"/>
      </defs>
      <use xlink:href="#STIXGeneral-Regular-32"/>
      <use xlink:href="#STIXGeneral-Regular-34" x="49.999985"/>
      <use xlink:href="#STIXGeneral-Regular-30" x="99.999969"/>
      <use xlink:href="#STIXGeneral-Regular-6d" x="149.999954"/>
      <use xlink:href="#STIXGeneral-Regular-69" x="227.799942"/>
      <use xlink:href="#STIXGeneral-Regular-6e" x="255.59993"/>
     </g>
    </g>
   </g>
  </g>
 </g>
 <defs>
  <clipPath id="p0ae4fb7ec3">
   <rect x="57.6" y="41.472" width="357.12" height="266.112"/>
  </clipPath>
 </defs>
</svg>
